<svg xmlns="http://www.w3.org/2000/svg" viewBox="0 0 320 320"><defs><linearGradient id="a" x2="0" y2="1"><stop stop-color="#dae7df"/><stop offset="1" stop-color="#eff3e9"/></linearGradient></defs><rect width="320" height="320" rx="28" fill="#f6f4ee"/><rect x="25" y="117" width="270" height="96" rx="22" fill="url(#a)"/><path d="M28 123H292M28 208H292" stroke="#afb9ac" stroke-width="13" stroke-linecap="round"/><path d="M38 123H95" stroke="#918b9c" stroke-width="13"/><path d="M101 123H156" stroke="#c6a266" stroke-width="13"/><path d="M163 123H219" stroke="#599994" stroke-width="13"/><g stroke="#467f80" stroke-width="10" stroke-linecap="round"><path d="M175 104V141M194 104V141M240 104V141M254 104V141"/></g><g stroke="#b2915e" stroke-width="10" stroke-linecap="round"><path d="M112 104V141M132 104V141"/></g><path d="M144 165H219L209 156M219 165L209 174" fill="none" stroke="#719389" stroke-width="4" stroke-linecap="round" stroke-linejoin="round"/><g fill="#70aaa5"><circle cx="183" cy="81" r="6"/><circle cx="184" cy="114" r="6"/><circle cx="184" cy="150" r="6"/><circle cx="247" cy="80" r="6"/></g><g fill="#c2a46d"><circle cx="122" cy="154" r="6"/><circle cx="122" cy="119" r="6"/><circle cx="122" cy="84" r="6"/></g><path d="M177 69L184 76L191 69M115 72L122 65L129 72" fill="none" stroke="#7d9184" stroke-width="3" stroke-linecap="round"/><g fill="#b3c0ae"><circle cx="45" cy="224" r="3"/><circle cx="69" cy="224" r="3"/><circle cx="93" cy="224" r="3"/><circle cx="117" cy="224" r="3"/><circle cx="141" cy="224" r="3"/><circle cx="165" cy="224" r="3"/><circle cx="189" cy="224" r="3"/><circle cx="213" cy="224" r="3"/><circle cx="237" cy="224" r="3"/><circle cx="261" cy="224" r="3"/></g></svg>
