<svg xmlns="http://www.w3.org/2000/svg" viewBox="0 0 320 320"><defs><linearGradient id="bg" x2="1" y2="1"><stop stop-color="#faf8f1"/><stop offset="1" stop-color="#eceee4"/></linearGradient><linearGradient id="p" x2="0.7" y2="1"><stop stop-color="#d4b883"/><stop offset="1" stop-color="#ad874e"/></linearGradient><linearGradient id="r" x2="0.6" y2="1"><stop stop-color="#a5b99f"/><stop offset="1" stop-color="#64866f"/></linearGradient></defs><rect width="320" height="320" rx="34" fill="url(#bg)"/><ellipse cx="169" cy="261" rx="104" ry="15" fill="#dfe2d6" opacity=".6"/><g fill="none" stroke-linecap="round"><path d="M25 96Q44 64 63 96T101 96T139 96Q161 64 181 96T219 96T257 96T295 96" stroke="#72959e" stroke-width="7"/><path d="M25 96Q44 128 63 96T101 96T139 96Q161 128 181 96T219 96T257 96T295 96" stroke="#a6b8b6" stroke-width="7"/><path d="M43 77V115M81 77V115M119 77V115M157 77V115M195 77V115M233 77V115M271 77V115" stroke="#bec8c2" stroke-width="3"/></g><rect x="44" y="123" width="53" height="9" rx="4.5" fill="#d3bb86"/><path d="M205 98C199 127 209 152 182 171C150 196 101 163 74 210" fill="none" stroke="#b78392" stroke-width="7" stroke-linecap="round"/><path d="M179 65C179 39 220 38 229 58C247 60 250 94 235 103C228 126 195 128 182 112C165 104 164 78 179 65Z" fill="url(#p)" stroke="#a78654" stroke-width="2"/><path d="M195 72Q205 62 218 79L213 109" fill="none" stroke="#e5cda6" stroke-width="10" stroke-linecap="round"/><path d="M135 64C145 54 162 62 164 75C155 88 140 83 135 73Z" fill="#a88caa"/><g transform="translate(139 187) rotate(-9)"><path d="M-36-2C-47-29 32-41 42-14C44-6 24 2 9 1Z" fill="#a5ba9f" stroke="#78947c" stroke-width="2"/><path d="M-37 9C-54 31-24 56 6 51C33 52 53 34 41 13C21 5-12 9-37 9Z" fill="url(#r)" stroke="#78947c" stroke-width="2"/><path d="M-32 4Q0 10 36 3" fill="none" stroke="#c18d99" stroke-width="5"/></g><path d="M139 231C157 236 133 244 151 250S138 266 158 268" fill="none" stroke="#d4a665" stroke-width="6" stroke-linecap="round"/><g fill="#e6c490"><circle cx="140" cy="233" r="4"/><circle cx="149" cy="249" r="4"/><circle cx="152" cy="265" r="4"/></g></svg>
