<svg xmlns="http://www.w3.org/2000/svg" viewBox="0 0 320 320"><defs><linearGradient id="bg" x2="1" y2="1"><stop stop-color="#faf8f1"/><stop offset="1" stop-color="#edf0e7"/></linearGradient><linearGradient id="body" x2="0" y2="1"><stop stop-color="#bfd2c8"/><stop offset="1" stop-color="#7fa69c"/></linearGradient></defs><rect width="320" height="320" rx="34" fill="url(#bg)"/><ellipse cx="160" cy="267" rx="113" ry="12" fill="#dce2d7" opacity=".6"/><path d="M55 64H265" stroke="#bac7be" stroke-width="42" stroke-linecap="round"/><path d="M55 64H265" stroke="#d9e2d6" stroke-width="31" stroke-linecap="round"/><path d="M89 64C91 41 133 83 143 59S190 77 203 61S233 80 238 63" fill="none" stroke="#a38498" stroke-width="5" stroke-linecap="round"/><path d="M34 158C34 112 76 111 120 119C143 123 145 139 160 141C175 139 177 123 200 119C244 111 286 112 286 158C286 204 244 205 200 197C177 193 175 177 160 175C145 177 143 193 120 197C76 205 34 204 34 158Z" fill="url(#body)" stroke="#6d968b" stroke-width="3"/><path d="M44 158C44 123 79 122 116 130C143 136 143 147 160 149C177 147 177 136 204 130C241 122 276 123 276 158C276 193 241 194 204 186C177 180 177 169 160 167C143 169 143 180 116 186C79 194 44 193 44 158Z" fill="#e5e9d9" stroke="#c3ac77" stroke-width="3"/><g fill="none" stroke-width="5"><path d="M63 157C70 136 101 183 116 161S97 141 87 160S58 171 63 157Z" stroke="#9f7e98"/><path d="M204 160C211 138 244 183 257 160S238 141 226 160S199 175 204 160Z" stroke="#bd91a5"/></g><ellipse cx="160" cy="158" rx="9" ry="29" fill="none" stroke="#7898b5" stroke-width="5" stroke-dasharray="7 5"/><g fill="#b98162" stroke="#f4e5c7" stroke-width="2"><circle cx="155" cy="134" r="6"/><circle cx="165" cy="179" r="6"/><circle cx="169" cy="149" r="5"/><circle cx="151" cy="167" r="5"/></g><g stroke="#80a598" stroke-width="3" fill="#c6d7c9"><rect x="47" y="230" width="103" height="42" rx="21"/><rect x="170" y="230" width="103" height="42" rx="21"/></g><g fill="none" stroke-linecap="round" stroke-width="4"><path d="M65 252Q77 235 88 251T111 251T133 251" stroke="#9f7e98"/><path d="M188 252Q200 235 211 251T234 251T256 251" stroke="#bd91a5"/></g></svg>
