<svg xmlns="http://www.w3.org/2000/svg" viewBox="0 0 320 320"><rect width="320" height="320" rx="32" fill="#f7f5ef"/><path d="m62 89 62-36 140 48v156l-67 39-135-53Z" fill="#edf0e0" stroke="#9eaf88" stroke-width="5" stroke-linejoin="round"/><path d="m62 89 134 47 68-35M196 136v160" fill="none" stroke="#aabb95" stroke-width="4"/><path d="m96 120 91 31 38-23v110l-35 22-94-31Z" fill="#c5dcd4" opacity=".55"/><g fill="#78975f" stroke="#557f50" stroke-width="1.5"><ellipse cx="75" cy="153" rx="6" ry="17" transform="rotate(-4 75 153)"/><ellipse cx="75" cy="204" rx="6" ry="17"/><ellipse cx="251" cy="157" rx="6" ry="17"/><ellipse cx="251" cy="207" rx="6" ry="17"/><ellipse cx="113" cy="254" rx="17" ry="6" transform="rotate(17 113 254)"/><ellipse cx="159" cy="270" rx="17" ry="6" transform="rotate(17 159 270)"/></g><g fill="none" stroke="#9abdd0" stroke-width="4" stroke-linecap="round" stroke-linejoin="round"><path d="M114 17v54m-6-8 6 8 6-8M159 24v61m-6-8 6 8 6-8M206 42v60m-6-8 6 8 6-8"/></g><path d="M133 242q-35-19-38-53m-5 8 5-8 6 8M213 253q18-15 19-39m-6 8 6-8 5 8" fill="none" stroke="#af976c" stroke-width="3" stroke-linecap="round" stroke-linejoin="round"/></svg>
