<svg xmlns="http://www.w3.org/2000/svg" viewBox="0 0 320 320"><defs><linearGradient id="bg" x2="0" y2="1"><stop stop-color="#f5f7f3"/><stop offset="1" stop-color="#ecece3"/></linearGradient><linearGradient id="prot"><stop stop-color="#93afa6"/><stop offset="1" stop-color="#617f7d"/></linearGradient><filter id="shadow"><feDropShadow dx="0" dy="3" stdDeviation="3" flood-color="#344a46" flood-opacity=".12"/></filter></defs><rect width="320" height="320" rx="26" fill="url(#bg)"/><path d="M20 22H300V145H20Z" fill="#dfece8" opacity=".45"/><g stroke="#c9bfa6" stroke-width="3" stroke-linecap="round"><path d="M22 145v17m4-17v17m-4 29v-17m4 17v-17"/><path d="M35 145v17m4-17v17m-4 29v-17m4 17v-17"/><path d="M48 145v17m4-17v17m-4 29v-17m4 17v-17"/><path d="M61 145v17m4-17v17m-4 29v-17m4 17v-17"/><path d="M74 145v17m4-17v17m-4 29v-17m4 17v-17"/><path d="M87 145v17m4-17v17m-4 29v-17m4 17v-17"/><path d="M100 145v17m4-17v17m-4 29v-17m4 17v-17"/><path d="M113 145v17m4-17v17m-4 29v-17m4 17v-17"/><path d="M126 145v17m4-17v17m-4 29v-17m4 17v-17"/><path d="M191 145v17m4-17v17m-4 29v-17m4 17v-17"/><path d="M204 145v17m4-17v17m-4 29v-17m4 17v-17"/><path d="M217 145v17m4-17v17m-4 29v-17m4 17v-17"/><path d="M230 145v17m4-17v17m-4 29v-17m4 17v-17"/><path d="M243 145v17m4-17v17m-4 29v-17m4 17v-17"/><path d="M256 145v17m4-17v17m-4 29v-17m4 17v-17"/><path d="M269 145v17m4-17v17m-4 29v-17m4 17v-17"/><path d="M282 145v17m4-17v17m-4 29v-17m4 17v-17"/><path d="M295 145v17m4-17v17m-4 29v-17m4 17v-17"/></g><g fill="#b0c0b6" stroke="#94aa9f" stroke-width=".7"><circle cx="24" cy="141" r="5"/><circle cx="24" cy="195" r="5"/><circle cx="37" cy="141" r="5"/><circle cx="37" cy="195" r="5"/><circle cx="50" cy="141" r="5"/><circle cx="50" cy="195" r="5"/><circle cx="63" cy="141" r="5"/><circle cx="63" cy="195" r="5"/><circle cx="76" cy="141" r="5"/><circle cx="76" cy="195" r="5"/><circle cx="89" cy="141" r="5"/><circle cx="89" cy="195" r="5"/><circle cx="102" cy="141" r="5"/><circle cx="102" cy="195" r="5"/><circle cx="115" cy="141" r="5"/><circle cx="115" cy="195" r="5"/><circle cx="128" cy="141" r="5"/><circle cx="128" cy="195" r="5"/><circle cx="193" cy="141" r="5"/><circle cx="193" cy="195" r="5"/><circle cx="206" cy="141" r="5"/><circle cx="206" cy="195" r="5"/><circle cx="219" cy="141" r="5"/><circle cx="219" cy="195" r="5"/><circle cx="232" cy="141" r="5"/><circle cx="232" cy="195" r="5"/><circle cx="245" cy="141" r="5"/><circle cx="245" cy="195" r="5"/><circle cx="258" cy="141" r="5"/><circle cx="258" cy="195" r="5"/><circle cx="271" cy="141" r="5"/><circle cx="271" cy="195" r="5"/><circle cx="284" cy="141" r="5"/><circle cx="284" cy="195" r="5"/><circle cx="297" cy="141" r="5"/><circle cx="297" cy="195" r="5"/></g><g filter="url(#shadow)" fill="url(#prot)"><path d="M127 124Q144 105 151 127L151 203Q136 222 127 203Z"/><path d="M169 127Q179 107 192 124L192 203Q176 224 169 203Z"/></g><g fill="#689bb1" stroke="#f8fbfa" stroke-width="2"><circle cx="41" cy="62" r="6"/><circle cx="88" cy="81" r="5"/><circle cx="118" cy="46" r="5"/><circle cx="175" cy="68" r="6"/><circle cx="229" cy="45" r="5"/><circle cx="271" cy="86" r="6"/><circle cx="219" cy="108" r="5"/><circle cx="52" cy="110" r="5"/><circle cx="159" cy="114" r="5"/><circle cx="160" cy="152" r="5"/><circle cx="160" cy="182" r="5"/><circle cx="161" cy="224" r="5"/><circle cx="93" cy="250" r="6"/><circle cx="237" cy="258" r="5"/><circle cx="48" cy="274" r="5"/></g><g fill="#bf866e"><circle cx="76" cy="166" r="5"/><circle cx="98" cy="209" r="5"/><circle cx="61" cy="127" r="5"/></g><g fill="none" stroke="#7896a1" stroke-width="2.5" stroke-linecap="round"><path d="M212 73q-19 16-26 36"/><path d="m179 102 7 8 10-4"/><path d="M139 226q-6 17-21 25"/><path d="m119 241-3 12 12-1"/><path d="M173 262q17-15 13-34"/><path d="m180 236 5-10 8 7"/></g></svg>