<svg xmlns="http://www.w3.org/2000/svg" viewBox="0 0 320 320"><defs><linearGradient id="bg" x2="0" y2="1"><stop stop-color="#f6f3ec"/><stop offset="1" stop-color="#e8eee7"/></linearGradient></defs><rect width="320" height="320" rx="30" fill="url(#bg)"/><g stroke="#a6c0b9" stroke-width="6" fill="none"><path d="m101 60 24-9 24 9 24-9 24 9 24-9"/><path d="m73 151 22-9 22 9M203 151l22-9 22 9M73 255l22-9 22 9M203 255l22-9 22 9"/></g><g fill="#769e97"><circle cx="101" cy="60" r="11"/><circle cx="125" cy="51" r="11"/><circle cx="149" cy="60" r="11"/><circle cx="173" cy="51" r="11"/><circle cx="197" cy="60" r="11"/><circle cx="221" cy="51" r="11"/></g><g fill="#9aafc1" fill-opacity=".46" stroke="#8aa1b5" stroke-width="2"><path d="M59 115C18 117 32 197 73 194l-7-28-8-13 13-22Z"/><path d="M125 115c41 2 27 82-14 79l7-28 8-13-13-22Z"/><path d="M189 115c-41 2-27 82 14 79l-7-28-8-13 13-22Z"/><path d="M255 115c41 2 27 82-14 79l7-28 8-13-13-22Z"/></g><g fill="#789f99"><circle cx="73" cy="151" r="10"/><circle cx="95" cy="142" r="10"/><circle cx="117" cy="151" r="10"/><circle cx="203" cy="151" r="10"/><circle cx="225" cy="142" r="10"/><circle cx="247" cy="151" r="10"/><circle cx="73" cy="255" r="10"/><circle cx="95" cy="246" r="10"/><circle cx="117" cy="255" r="10"/><circle cx="203" cy="255" r="10"/><circle cx="225" cy="246" r="10"/><circle cx="247" cy="255" r="10"/></g><g fill="none" stroke="#a0afa4" stroke-width="2.5"><path d="m145 79-42 24m0-7-1 8 8 1M177 79l42 24m-8 1 9 0-2-8M95 199v25m-5-5 5 6 5-6M225 199v25m-5-5 5 6 5-6"/></g><g fill="#d7ab63"><circle cx="89" cy="38" r="6"/><circle cx="234" cy="31" r="6"/><circle cx="72" cy="129" r="6"/><circle cx="117" cy="131" r="6"/><circle cx="203" cy="129" r="6"/><circle cx="247" cy="131" r="6"/><circle cx="150" cy="181" r="5"/><circle cx="163" cy="181" r="5"/><circle cx="150" cy="199" r="5"/><circle cx="163" cy="199" r="5"/></g><g fill="#ae94bb"><ellipse cx="174" cy="181" rx="8" ry="5"/><ellipse cx="174" cy="199" rx="8" ry="5"/></g></svg>
