<svg xmlns="http://www.w3.org/2000/svg" viewBox="0 0 320 320"><rect width="320" height="320" rx="28" fill="#f6f4ee"/><rect x="44" y="83" width="12" height="160" rx="5" fill="#9ca49d"/><rect x="264" y="83" width="12" height="160" rx="5" fill="#9ca49d"/><g stroke="#79a198" stroke-width="10" stroke-linecap="round"><path d="M54 109H139M181 109H266M54 214H139M181 214H266"/></g><g fill="#91b3a8"><circle cx="70" cy="106" r="7"/><circle cx="88" cy="111" r="7"/><circle cx="106" cy="106" r="7"/><circle cx="124" cy="111" r="7"/><circle cx="194" cy="108" r="7"/><circle cx="212" cy="111" r="7"/><circle cx="230" cy="106" r="7"/><circle cx="248" cy="111" r="7"/><circle cx="70" cy="212" r="7"/><circle cx="88" cy="217" r="7"/><circle cx="106" cy="212" r="7"/><circle cx="124" cy="217" r="7"/><circle cx="194" cy="214" r="7"/><circle cx="212" cy="217" r="7"/><circle cx="230" cy="212" r="7"/><circle cx="248" cy="217" r="7"/></g><path d="M91 161H229" stroke="#ac8a98" stroke-width="16" stroke-linecap="round"/><g fill="none" stroke="#ac8a98" stroke-width="7" stroke-linecap="round"><path d="M106 160L117 125M130 160L136 126M214 160L203 125M190 160L184 126M106 163L117 198M130 163L136 198M214 163L203 198M190 163L184 198"/></g><g fill="#b39cbe"><circle cx="95" cy="94" r="8"/><circle cx="225" cy="96" r="8"/></g><g fill="#9b7eae"><circle cx="96" cy="73" r="5"/><circle cx="225" cy="74" r="5"/></g><g fill="#c6a766"><circle cx="111" cy="140" r="5"/><circle cx="208" cy="184" r="5"/></g><path d="M75 264H119L109 256M119 264L109 272M245 264H201L211 256M201 264L211 272" stroke="#a0aaa0" stroke-width="3" fill="none" stroke-linecap="round" stroke-linejoin="round"/></svg>
