<svg xmlns="http://www.w3.org/2000/svg" viewBox="0 0 320 320"><rect width="320" height="320" rx="28" fill="#f7f5ef"/><path d="M84 31C35 39 27 101 45 167C59 222 59 267 97 287C136 259 144 215 129 176C115 154 126 141 136 117C150 71 126 34 84 31Z" fill="#d9e5d9" stroke="#91aa95" stroke-width="3"/><path d="M236 31C285 39 293 101 275 167C261 222 261 267 223 287C184 259 176 215 191 176C205 154 194 141 184 117C170 71 194 34 236 31Z" fill="#e4dfce" stroke="#aca78d" stroke-width="3"/><g fill="#b4a6be" opacity=".8"><ellipse cx="76" cy="106" rx="20" ry="32"/><ellipse cx="244" cy="106" rx="20" ry="32"/></g><path d="M121 156h78" stroke="#c5b694" stroke-width="26"/><path d="M121 156h78" stroke="#ded5bd" stroke-width="20"/><g fill="#78a6a4" stroke="#628f8d"><circle cx="111" cy="157" r="10"/><circle cx="159" cy="150" r="9"/></g><g fill="#c5a171" stroke="#ac8b60"><circle cx="209" cy="157" r="10"/><circle cx="176" cy="163" r="9"/></g><path d="m142 135 30 0-6-5m12 44-30 0 6 5" fill="none" stroke="#939a83" stroke-width="2" stroke-linecap="round"/><g stroke="#a5b49d" stroke-width="2" stroke-linecap="round"><path d="m58 45-7-11m-7 33-13-5m8 30-13-2m10 31-13 1m18 27-13 4m22 28-13 5m21 23-12 5m20 25-11 7m22 17-10 9m26 10-5 13m38-36 11 6m-1-26 13 3m123-207 7-11m7 33 13-5m-8 30 13-2m-10 31 13 1m-18 27 13 4m-22 28 13 5m-21 23 12 5m-20 25 11 7m-22 17 10 9m-26 10 5 13m-38-36-11 6m1-26-13 3"/></g><circle cx="95" cy="221" r="16" fill="#78a6a4"/><path d="M95 205a16 16 0 0 1 0 32Z" fill="#c5a171"/><circle cx="225" cy="221" r="16" fill="#78a6a4"/><path d="M225 205a16 16 0 0 1 0 32Z" fill="#c5a171"/></svg>
