<svg xmlns="http://www.w3.org/2000/svg" viewBox="0 0 320 320"><defs><linearGradient id="b" x2="1" y2="1"><stop stop-color="#f6f7ef"/><stop offset="1" stop-color="#e9f0e6"/></linearGradient><radialGradient id="g"><stop stop-color="#d3e6b5" stop-opacity=".9"/><stop offset="1" stop-color="#d3e6b5" stop-opacity="0"/></radialGradient></defs><rect width="320" height="320" rx="30" fill="url(#b)"/><ellipse cx="210" cy="157" rx="96" ry="116" fill="url(#g)"/><ellipse cx="210" cy="157" rx="74" ry="90" fill="#d3e3d9" stroke="#83a79b" stroke-width="2"/><g fill="#7b9e90"><rect x="29" y="65" width="52" height="22" rx="11" transform="rotate(20 55 76)"/><rect x="24" y="143" width="55" height="23" rx="11" transform="rotate(-18 51 155)"/><rect x="36" y="224" width="51" height="22" rx="11" transform="rotate(25 61 235)"/></g><g fill="none" stroke="#c3a263" stroke-width="3"><circle cx="106" cy="89" r="5"/><path d="M111 88l8 3"/><circle cx="91" cy="123" r="5"/><path d="M96 122l8 3"/><circle cx="115" cy="167" r="5"/><path d="M120 166l8 3"/><circle cx="99" cy="207" r="5"/><path d="M104 206l8 3"/><circle cx="143" cy="239" r="5"/><path d="M148 238l8 3"/><circle cx="146" cy="124" r="5"/><circle cx="177" cy="158" r="5"/><circle cx="192" cy="77" r="5"/></g><ellipse cx="181" cy="119" rx="17" ry="13" fill="#729b96"/><g fill="#9c88a1"><ellipse cx="213" cy="162" rx="13" ry="18"/><ellipse cx="235" cy="162" rx="13" ry="18"/></g><g fill="none" stroke="#c3a263" stroke-width="3"><circle cx="212" cy="154" r="4"/><circle cx="236" cy="154" r="4"/></g><path d="M163 207h99M163 217h99" stroke="#8b9fb4" stroke-width="3"/><g fill="#8b9fb4"><rect x="199" y="205" width="10" height="15" rx="2"/><rect x="214" y="205" width="10" height="15" rx="2"/><rect x="229" y="205" width="10" height="15" rx="2"/><rect x="244" y="205" width="10" height="15" rx="2"/></g><rect x="176" y="205" width="13" height="15" rx="2" fill="#c5a66e"/><path d="M240 203c-7-11 13-12 7-22s17-9 11-20" fill="none" stroke="#c48d78" stroke-width="3" stroke-linecap="round"/></svg>
