<svg xmlns="http://www.w3.org/2000/svg" viewBox="0 0 320 320">
<defs><linearGradient id="bg" x2="0" y2="1"><stop stop-color="#faf8f2"/><stop offset="1" stop-color="#eaece5"/></linearGradient><filter id="shadow"><feDropShadow dx="0" dy="4" stdDeviation="5" flood-color="#465968" flood-opacity=".12"/></filter></defs>
<rect width="320" height="320" rx="40" fill="url(#bg)"/>
<g stroke="#b2c3c4" stroke-width="4"><path d="M45 77v30m20-30v30m20-30v30m20-30v30m20-30v30m20-30v30M45 213v30m20-30v30m20-30v30m20-30v30m20-30v30m20-30v30M240 150v20m18-20v20m18-20v20"/></g>
<g fill="none" stroke-linecap="round" stroke-width="8"><path d="M36 77h104c44 0 43 73 95 73h49M36 243h104c44 0 43-73 95-73h49" stroke="#728c9b"/><path d="M36 107h111" stroke="#63aa98"/><path d="M38 213h27m13 0h36m13 0h25" stroke="#63aa98"/><path d="M65 213h8m40 0h8m30 0h8" stroke="#d3aa65"/></g>
<g filter="url(#shadow)"><path d="M179 153q-10-25 11-34q25-8 36 10q14 19-5 36q-21 16-42-12" fill="#ae91aa"/><ellipse cx="147" cy="107" rx="22" ry="17" fill="#ae91aa"/><ellipse cx="126" cy="211" rx="19" ry="16" fill="#ae91aa"/></g>
<g fill="#63aa98"><path d="m169 107-12-9v18zM102 213l12-9v18z"/></g>
<circle cx="201" cy="142" r="9" fill="#f2efe7"/>
</svg>
