<svg xmlns="http://www.w3.org/2000/svg" viewBox="0 0 320 320"><defs><linearGradient id="bg" x2="1" y2="1"><stop stop-color="#faf8f2"/><stop offset="1" stop-color="#edf0e4"/></linearGradient><linearGradient id="c" x2="0" y2="1"><stop stop-color="#d3dccc"/><stop offset="1" stop-color="#a7bfa8"/></linearGradient></defs><rect width="320" height="320" rx="34" fill="url(#bg)"/><ellipse cx="202" cy="266" rx="96" ry="13" fill="#dee2d4"/><rect x="104" y="49" width="191" height="207" rx="86" fill="#d3c398" stroke="#b7a77e" stroke-width="3"/><rect x="115" y="59" width="169" height="187" rx="76" fill="url(#c)" stroke="#7f9f8b" stroke-width="3"/><path d="M21 133Q33 115 45 133T69 133T93 133" fill="none" stroke="#ae7d96" stroke-width="5"/><path d="M21 133Q33 151 45 133T69 133T93 133" fill="none" stroke="#c2ac7e" stroke-width="5"/><path d="M28 127V139M41 124V141M53 127V139M65 124V141M77 127V139" stroke="#d4c7a6" stroke-width="2"/><g fill="#ada0bc" stroke="#9283a6" stroke-width="2"><rect x="103" y="113" width="26" height="47" rx="8"/><ellipse cx="108" cy="136" rx="7" ry="25"/></g><path d="M94 133H137C157 133 156 160 176 154S202 129 221 147" fill="none" stroke="#ae7d96" stroke-width="5" stroke-linecap="round"/><path d="M149 193C153 165 180 208 198 187S249 168 249 197S221 224 201 206S149 223 149 193Z" fill="none" stroke="#8aa4aa" stroke-width="5"/><path d="M153 201C164 176 180 216 202 195S242 179 242 201" fill="none" stroke="#b2c0b8" stroke-width="4"/><path d="M199 185Q220 164 237 185" fill="none" stroke="#ae7d96" stroke-width="6"/><g fill="#809b81" stroke="#e1e5d5" stroke-width="1.5"><ellipse cx="151" cy="145" rx="5" ry="10" transform="rotate(-25 151 145)"/><ellipse cx="163" cy="154" rx="5" ry="10" transform="rotate(-15 163 154)"/><ellipse cx="176" cy="154" rx="5" ry="10" transform="rotate(20 176 154)"/><ellipse cx="188" cy="148" rx="5" ry="10" transform="rotate(25 188 148)"/><ellipse cx="201" cy="143" rx="5" ry="10"/></g><g fill="#c2ac7e"><circle cx="91" cy="165" r="4"/><circle cx="83" cy="178" r="4"/><circle cx="95" cy="190" r="3"/><circle cx="76" cy="201" r="4"/><circle cx="87" cy="215" r="3"/></g><ellipse cx="141" cy="115" rx="9" ry="12" fill="#d4b17e"/></svg>
